<svg version="1.1" id="Layer_1" xmlns="http://www.w3.org/2000/svg" xmlns:xlink="http://www.w3.org/1999/xlink" x="0px" y="0px"
	 width="100%" viewBox="359 346 334 334" enable-background="new 0 0 1024 1024" xml:space="preserve">
<defs>
	<!-- Steering wheel metallic gradient - steel blue with enhanced shine -->
	<linearGradient id="wheelGradient" x1="0%" y1="0%" x2="100%" y2="100%">
		<stop offset="0%" style="stop-color:#8DC9DB;stop-opacity:1" />
		<stop offset="25%" style="stop-color:#4A90A4;stop-opacity:1" />
		<stop offset="75%" style="stop-color:#35707F;stop-opacity:1" />
		<stop offset="100%" style="stop-color:#2A5866;stop-opacity:1" />
	</linearGradient>

	<!-- Inner pattern gradient - sage green with enhanced glow -->
	<radialGradient id="innerGradient" cx="50%" cy="40%" r="60%">
		<stop offset="0%" style="stop-color:#D8F0DD;stop-opacity:1" />
		<stop offset="35%" style="stop-color:#A8C9AD;stop-opacity:1" />
		<stop offset="70%" style="stop-color:#7B9E87;stop-opacity:1" />
		<stop offset="100%" style="stop-color:#5A7A64;stop-opacity:1" />
	</radialGradient>

	<!-- Highlight sparkle gradient - for depth -->
	<radialGradient id="sparkleGradient" cx="30%" cy="30%" r="50%">
		<stop offset="0%" style="stop-color:#FFFFFF;stop-opacity:0.9" />
		<stop offset="40%" style="stop-color:#FFFFFF;stop-opacity:0.4" />
		<stop offset="100%" style="stop-color:#FFFFFF;stop-opacity:0" />
	</radialGradient>

	<!-- Background gradient for depth -->
	<radialGradient id="bgGradient" cx="50%" cy="50%" r="70%">
		<stop offset="0%" style="stop-color:#E3F1F6;stop-opacity:1" />
		<stop offset="100%" style="stop-color:#D1E7ED;stop-opacity:1" />
	</radialGradient>
</defs>
<rect x="359" y="346" width="334" height="334" fill="url(#bgGradient)"/>
<path fill="url(#wheelGradient)" opacity="1.000000" stroke="none" 
	d="
M409.801880,618.812622 
	C409.823334,613.907288 412.050140,610.507385 415.253143,607.612976 
	C420.202759,603.140259 425.369904,598.944031 430.871033,595.156616 
	C435.741638,591.803406 437.292480,583.558899 433.978363,578.848999 
	C423.851593,564.457031 417.109467,548.693726 414.434143,531.232544 
	C413.538666,525.387939 407.164581,521.130554 401.336578,521.920105 
	C394.252380,522.879883 387.222412,524.388916 380.017487,524.303589 
	C371.766815,524.205811 366.951843,519.969299 367.159393,512.960083 
	C367.368286,505.905792 372.959076,501.310852 381.029480,502.052094 
	C387.811279,502.674957 394.553253,503.759521 401.299591,504.731689 
	C406.772369,505.520325 413.469910,501.280548 414.321838,496.031494 
	C417.176910,478.440430 423.784973,462.469818 434.382507,448.124664 
	C437.196686,444.315308 435.378571,435.343872 431.523865,432.439362 
	C426.203278,428.430359 420.835632,424.469849 415.709930,420.221039 
	C412.176666,417.292206 409.325775,413.664185 409.954468,408.644806 
	C411.093170,399.553864 421.059845,395.850800 428.576019,401.760254 
	C433.622681,405.728119 437.370300,411.012543 440.495667,416.430634 
	C443.555847,421.735565 447.966278,423.840485 453.361237,425.207092 
	C455.155060,425.661530 456.239624,424.808899 457.420624,423.941803 
	C472.751495,412.686035 489.838196,405.660522 508.621490,402.815582 
	C510.779694,402.488647 511.341736,401.048950 512.550354,399.676575 
	C518.328064,393.115997 514.953491,385.974121 514.270935,379.040741 
	C513.815125,374.411102 512.898865,369.783081 513.406555,365.147675 
	C514.210999,357.803619 518.492065,354.230164 525.376770,354.677124 
	C531.390625,355.067535 535.071472,359.394226 535.342163,366.236359 
	C535.647583,373.954590 534.152039,381.473846 532.849915,389.002411 
	C531.819275,394.961304 536.369873,402.453491 542.136169,403.401062 
	C559.536499,406.260345 575.375366,412.805145 589.722778,423.045685 
	C593.838440,425.983215 601.480530,424.591858 604.460388,420.422119 
	C609.108337,413.918304 613.421936,407.139374 619.385742,401.706665 
	C623.823242,397.664368 630.126953,397.460175 634.472839,401.001709 
	C638.894287,404.604828 639.599670,410.475800 636.251038,415.867126 
	C634.553894,418.599518 632.217712,420.735443 629.721375,422.696381 
	C625.661682,425.885376 621.577515,429.044098 617.472229,432.174255 
	C613.069153,435.531494 611.468750,444.212128 614.570923,448.634369 
	C624.686462,463.054138 630.967773,479.033478 634.133545,496.303253 
	C634.965637,500.842926 641.513428,505.429138 646.327881,504.802856 
	C652.758667,503.966278 659.157532,502.856079 665.602539,502.166168 
	C671.086487,501.579102 676.462952,502.136353 679.747437,507.405670 
	C684.390503,514.854614 679.443237,523.845764 670.515015,524.281494 
	C662.807556,524.657654 655.260925,523.176575 647.723999,521.857483 
	C641.761658,520.813904 635.031799,525.167358 634.078613,530.945374 
	C631.126221,548.841370 624.532410,565.218628 613.562988,579.721069 
	C611.752136,582.115234 612.482971,584.124023 612.653503,586.799988 
	C613.084534,593.566223 618.003967,595.793396 622.233032,599.050415 
	C626.190063,602.097961 630.242432,605.072144 633.869568,608.485901 
	C639.441284,613.729736 639.956543,620.749939 635.530090,625.347168 
	C630.850830,630.206909 623.993713,629.724426 618.302124,624.080383 
	C613.308350,619.128418 609.306946,613.380615 605.240051,607.682434 
	C601.711914,602.739197 593.377502,601.346375 588.494507,604.811279 
	C574.254395,614.915955 558.427246,621.187256 541.274780,624.115173 
	C538.701538,624.554382 537.720093,625.910645 536.131531,627.813904 
	C530.443481,634.628784 534.121277,641.613281 534.766724,648.563171 
	C535.105042,652.205933 535.805664,655.832214 535.896606,659.477112 
	C536.083801,666.977783 531.469849,672.145386 524.823120,672.272095 
	C517.997375,672.402283 513.735840,667.662476 513.645935,659.805481 
	C513.561646,652.441467 514.946716,645.251465 516.289978,638.060303 
	C517.280884,632.755615 512.248108,625.127991 507.021240,624.147034 
	C489.082092,620.780457 472.512024,614.239014 457.862183,603.154541 
	C454.719482,600.776611 446.000488,602.827148 443.511414,606.315369 
	C439.448639,612.008972 435.395996,617.711975 431.213623,623.317383 
	C428.268829,627.264221 424.482300,629.991394 419.267670,628.968018 
	C414.007477,627.935669 410.829163,624.551147 409.801880,618.812622 
M600.757324,453.734741 
	C575.789917,423.539398 543.803528,410.524048 505.340820,418.093597 
	C452.608643,428.471375 419.593994,477.042664 428.515076,530.360596 
	C436.730164,579.458923 481.824982,617.788147 536.938232,610.278687 
	C611.505676,600.118591 646.194946,514.784363 600.757324,453.734741 
z"/>
<path fill="url(#innerGradient)" opacity="1.000000" stroke="none" 
	d="
M443.147705,474.280640 
	C457.866302,445.822906 480.623596,428.269073 512.008301,424.117981 
	C565.470703,417.046844 604.883972,455.206146 612.460388,497.328552 
	C621.440979,547.257019 587.765503,592.035095 544.162476,601.923218 
	C491.222321,613.928772 438.348236,575.103333 434.542297,521.172668 
	C433.389648,504.839661 436.119843,489.401215 443.147705,474.280640 
M451.685669,536.807983 
	C454.673523,545.851440 458.924286,554.159058 465.520111,561.254700 
	C475.224060,551.690247 484.658264,542.383423 494.106873,533.091187 
	C495.068726,532.145264 495.063080,531.199707 494.693817,529.939819 
	C491.927521,520.501038 491.715027,520.313416 481.733429,520.312317 
	C479.407104,520.312073 477.080750,520.308838 474.754425,520.308716 
	C466.327820,520.308228 457.901215,520.308472 449.197388,520.308472 
	C448.722504,526.195435 450.196625,531.103455 451.685669,536.807983 
M595.654419,538.166870 
	C597.465271,532.535278 599.457947,526.932556 598.715698,520.276001 
	C586.123108,520.276001 573.837280,520.281433 561.551453,520.271057 
	C559.331543,520.269165 556.775330,520.150940 556.455383,523.001587 
	C556.015442,526.922363 550.859009,530.393494 555.366760,534.822815 
	C563.323059,542.640625 571.259094,550.481384 579.068054,558.445496 
	C581.683044,561.112488 583.492676,560.552612 585.455383,557.848755 
	C589.692932,552.011169 592.927063,545.658508 595.654419,538.166870 
M552.882507,552.618286 
	C550.157410,549.941284 547.406067,547.290405 544.713562,544.580994 
	C540.884949,540.728394 538.108948,545.333374 534.830872,545.816711 
	C532.407654,546.174011 531.255127,547.739136 531.297119,550.384521 
	C531.413086,557.691101 531.331055,565.000793 531.329041,572.309265 
	C531.327576,577.739258 531.328735,583.169250 531.328735,589.319214 
	C547.119202,587.681763 560.309204,582.334290 572.750793,571.545654 
	C565.869873,564.995789 559.628540,559.054749 552.882507,552.618286 
M585.826660,469.733307 
	C584.432739,468.190002 583.749023,465.936584 582.101135,465.953552 
	C573.441101,474.716095 564.664795,483.338654 555.387329,491.383087 
	C550.656189,495.485413 554.911255,498.397491 555.610229,501.856659 
	C556.278564,505.164001 558.453918,505.824493 561.476868,505.793762 
	C572.110291,505.685577 582.745544,505.776215 593.379944,505.742493 
	C598.699158,505.725616 599.407776,504.831085 598.390259,499.512878 
	C596.366577,488.936127 592.478577,479.126984 585.826660,469.733307 
M493.426758,443.930756 
	C488.676483,446.010529 484.283508,448.677582 480.140228,451.798004 
	C477.376160,453.879700 476.541138,455.732117 479.471039,458.565216 
	C487.489594,466.318848 495.485901,474.112671 503.123322,482.236267 
	C506.985687,486.344543 509.700989,482.405640 512.903625,481.749603 
	C515.772034,481.162048 516.904785,479.410461 516.868652,476.388763 
	C516.735229,465.234467 516.682007,454.075348 516.877563,442.922913 
	C516.954285,438.547333 514.960388,437.828613 511.313416,438.559998 
	C505.427063,439.740540 499.621002,441.161896 493.426758,443.930756 
M477.264038,571.769592 
	C477.299561,572.090881 477.209259,572.547913 477.388550,572.714050 
	C487.521149,582.103638 499.761230,586.801636 513.232422,588.707397 
	C516.347107,589.148071 516.790405,587.134888 516.786743,584.686707 
	C516.769714,573.195923 516.728516,561.704590 516.819824,550.214478 
	C516.864563,544.587830 511.521820,545.650574 508.783508,543.503906 
	C506.655457,541.835571 504.830292,542.851685 503.130951,544.595642 
	C494.534698,553.417480 485.421600,561.741943 477.264038,571.769592 
M508.521698,502.097809 
	C507.807770,503.406921 506.884979,504.645477 506.414917,506.036987 
	C503.985077,513.229431 504.267029,520.192322 509.285400,526.240356 
	C513.851196,531.743042 519.981689,534.117859 527.046265,533.018066 
	C535.849854,531.647583 542.701782,524.403625 543.624634,516.091614 
	C544.572449,507.554688 540.219849,499.544525 532.708984,496.003448 
	C524.206055,491.994629 515.944031,493.906464 508.521698,502.097809 
M531.322021,474.265564 
	C531.478394,477.109741 530.444641,480.274841 534.577087,481.601685 
	C538.754333,482.942902 542.239014,485.477203 546.423523,480.607513 
	C553.230225,472.686279 560.842163,465.443848 568.293701,458.096893 
	C571.105652,455.324493 570.656006,453.517792 567.685608,451.399200 
	C558.324402,444.722534 547.955322,440.537323 536.693909,438.427979 
	C533.029907,437.741730 531.138733,438.595734 531.240295,442.917603 
	C531.478455,453.047333 531.317810,463.186401 531.322021,474.265564 
M469.500214,505.899719 
	C474.984009,505.887817 480.533844,505.338562 485.934570,506.002441 
	C492.429840,506.800903 492.255737,501.583191 494.335022,498.186462 
	C496.357147,494.883240 493.838715,493.328278 492.026978,491.509857 
	C484.638458,484.093903 477.230713,476.696838 469.778564,469.345001 
	C468.530579,468.113861 467.545746,466.414246 465.281525,466.173737 
	C456.665527,476.229523 451.723572,488.002686 449.410706,500.989441 
	C448.829590,504.252319 449.839203,506.043488 453.546051,505.923004 
	C458.525879,505.761108 463.515259,505.893494 469.500214,505.899719 
z"/>
</svg>