<svg version="1.1" id="Layer_1" xmlns="http://www.w3.org/2000/svg" xmlns:xlink="http://www.w3.org/1999/xlink" x="0px" y="0px"
	 width="100%" viewBox="162 386 692 248" enable-background="new 0 0 1024 1024" xml:space="preserve">
<path opacity="1.000000" stroke="none" 
	d="
M317.461243,430.364929 
	C351.216583,440.313477 371.010162,462.603577 378.295105,496.352600 
	C379.442963,501.670288 383.945587,504.781189 389.353638,503.944702 
	C393.792786,503.258026 398.240479,502.582977 402.707397,502.129120 
	C409.388000,501.450256 414.035217,504.754578 414.332825,510.171234 
	C414.608398,515.186401 411.563141,518.739807 406.440125,519.266846 
	C401.732391,519.751221 397.136108,518.839111 392.575775,517.872925 
	C383.384033,515.925415 380.230713,518.153076 377.976593,527.322449 
	C369.413818,562.154297 347.554840,583.780518 312.732117,592.250916 
	C305.361511,594.043762 302.889038,597.674683 304.220581,605.319580 
	C304.905029,609.249207 305.472198,613.206055 305.906830,617.170898 
	C306.628387,623.753113 303.219604,628.514709 297.798492,628.724731 
	C292.541779,628.928406 288.640167,624.147827 289.025513,617.650879 
	C289.231689,614.174438 289.426666,610.594971 290.401550,607.290588 
	C291.841766,602.408936 289.720459,598.651062 287.608765,594.729431 
	C286.610046,592.874573 284.719757,593.295166 283.176178,593.005676 
	C265.500519,589.690125 250.033188,582.095337 237.300888,569.282227 
	C224.924438,556.827148 217.677261,541.727966 214.717712,524.508545 
	C213.905838,519.784912 209.305435,516.339783 204.544983,517.053040 
	C199.936600,517.743530 195.344101,518.631348 190.710007,519.036194 
	C184.572083,519.572449 180.328445,516.736206 179.633163,512.092529 
	C178.669861,505.658844 183.174332,501.431061 190.546005,502.073730 
	C194.518967,502.420074 198.461960,503.113983 202.416870,503.662842 
	C210.244888,504.749237 213.220123,502.600006 214.687866,494.784943 
	C220.906754,461.672058 248.347748,434.610382 281.699036,428.700104 
	C288.181641,427.551300 291.051331,423.288330 289.927429,416.720276 
	C289.029083,411.470398 288.267670,406.199707 288.638794,400.833588 
	C288.942169,396.447174 291.110199,393.607666 295.458801,392.819672 
	C299.528687,392.082245 303.020569,394.612823 304.549011,398.916748 
	C306.329071,403.929169 304.665649,408.858521 304.088928,413.744141 
	C302.744537,425.132996 303.839722,427.040436 314.657104,429.612854 
	C315.466522,429.805359 316.268860,430.027527 317.461243,430.364929 
M287.391602,438.995789 
	C249.942383,443.355652 217.710419,478.819550 225.234314,522.882812 
	C231.745270,561.013855 266.210480,587.955872 306.338440,582.305908 
	C347.192810,576.553589 373.821930,539.491699 367.663605,498.955322 
	C362.006775,461.719879 325.297791,433.915222 287.391602,438.995789 
z"/>
<path opacity="1.000000" stroke="none" 
	d="
M727.103394,559.361938 
	C706.283386,558.550903 689.678833,546.136353 684.813477,528.091492 
	C679.609924,508.792297 686.845154,488.418152 703.026550,478.649200 
	C718.406555,469.364014 734.600830,468.817108 749.949829,478.163757 
	C764.687317,487.138062 769.716125,501.660095 769.364563,518.428345 
	C769.276978,522.605774 766.620544,522.258789 763.934509,522.259033 
	C745.605713,522.260437 727.276978,522.239136 708.948181,522.266174 
	C706.985901,522.269104 704.950806,521.858032 702.249695,523.264099 
	C703.892761,530.632629 707.764099,536.569641 714.635559,539.962646 
	C728.793274,546.953491 741.692383,544.567871 753.282166,533.120361 
	C756.355652,536.512024 759.286804,539.619568 762.066223,542.857422 
	C764.006287,545.117554 761.948669,546.561035 760.596680,547.877441 
	C753.226929,555.053345 744.151855,558.382629 734.076233,559.280823 
	C731.925537,559.472534 729.746704,559.349060 727.103394,559.361938 
M746.141541,508.868500 
	C751.038330,509.212189 751.242676,506.699005 749.963013,502.923950 
	C744.443237,486.639923 721.619629,481.816467 709.186096,494.369995 
	C705.281616,498.312134 702.511414,502.785187 702.377136,508.879852 
	C717.021851,508.879852 731.121948,508.879852 746.141541,508.868500 
z"/>
<path opacity="1.000000" stroke="none" 
	d="
M594.315979,486.355621 
	C616.430664,463.542114 652.954529,468.194275 665.745117,495.203735 
	C668.769714,501.590637 670.217834,508.415222 670.313843,515.488281 
	C670.405090,522.211304 670.356323,522.247681 663.789368,522.252075 
	C645.471130,522.264343 627.152893,522.239319 608.834656,522.246338 
	C602.860291,522.248596 602.378540,523.016479 604.751465,528.543762 
	C611.612976,544.526245 635.843689,549.183228 649.446899,536.810730 
	C653.010193,533.569763 655.127502,533.522400 657.576660,537.412415 
	C657.664551,537.551880 657.788208,537.669128 657.897461,537.794739 
	C664.618164,545.523621 664.478271,546.507385 655.849792,552.197144 
	C626.470764,571.570129 587.544312,553.500244 584.057312,518.621216 
	C582.873291,506.777588 586.157288,495.855713 594.315979,486.355621 
M621.623352,488.091003 
	C612.886963,489.898254 607.157959,495.157410 604.104248,503.434906 
	C602.512146,507.750641 603.281616,509.023254 607.730957,509.030853 
	C620.866272,509.053314 634.002197,508.889801 647.136963,508.961700 
	C651.486267,508.985535 652.253967,507.323059 650.913574,503.431488 
	C647.052002,492.220184 635.431946,485.781342 621.623352,488.091003 
z"/>
<path opacity="1.000000" stroke="none" 
	d="
M479.283142,509.569092 
	C484.940369,510.594696 490.157928,511.616486 495.162750,513.524597 
	C510.017670,519.188049 514.217041,536.107971 503.760925,548.143372 
	C495.711029,557.408997 484.853027,559.478760 473.460663,559.613892 
	C462.176147,559.747803 451.346497,557.344543 441.102264,552.400146 
	C437.647278,550.732666 436.730255,548.696411 438.689026,545.315186 
	C440.411133,542.342651 440.654083,538.591187 443.774963,535.720032 
	C450.662231,540.509460 458.411560,543.265747 466.767212,544.312195 
	C472.792603,545.066833 478.731171,544.863464 484.491882,542.764404 
	C488.353149,541.357422 491.444214,538.912903 491.407043,534.545288 
	C491.369446,530.135254 488.194916,527.549438 484.242310,526.604980 
	C475.844940,524.598328 467.292175,523.236084 458.907898,521.181885 
	C444.963440,517.765381 437.833069,508.884430 438.771545,496.690643 
	C439.596344,485.974548 447.333344,477.257507 459.030304,473.987274 
	C473.723083,469.879517 488.026672,471.723206 502.109283,476.895142 
	C505.531158,478.151794 507.037964,479.785278 504.782227,483.536377 
	C503.020477,486.466003 501.970154,489.823456 500.407471,493.445831 
	C491.055969,488.732422 481.596069,486.691071 471.596130,487.298218 
	C468.038055,487.514221 464.670441,488.259949 461.569946,489.991089 
	C458.346680,491.790802 456.955322,494.641296 457.132385,498.307587 
	C457.304932,501.881348 459.220428,504.190247 462.401672,505.522980 
	C467.670746,507.730347 473.379333,508.163086 479.283142,509.569092 
z"/>
<path opacity="1.000000" stroke="none" 
	d="
M548.243286,494.214996 
	C548.252319,506.849579 548.149658,519.015015 548.304932,531.177246 
	C548.443176,542.000305 556.075684,547.045898 565.861389,542.377441 
	C570.603394,540.115173 571.918335,541.878845 573.298523,545.844604 
	C576.437073,554.862976 576.036194,555.779602 566.667114,558.263733 
	C551.861938,562.189209 537.984558,556.923462 532.327026,545.191711 
	C530.416016,541.228943 529.614014,537.015076 529.627197,532.612183 
	C529.666138,519.614807 529.516785,506.614899 529.741333,493.621124 
	C529.812500,489.503204 528.524048,488.090240 524.358398,488.151978 
	C515.268860,488.286682 513.157227,485.198761 515.178406,476.017365 
	C515.829895,473.057983 517.924072,473.117706 520.106995,473.001068 
	C529.653137,472.491089 529.576050,472.489655 529.665771,462.719482 
	C529.780029,450.273041 527.945801,451.841919 540.430481,451.710724 
	C548.267761,451.628357 548.260803,451.690094 548.260376,459.744568 
	C548.260132,463.576782 548.284119,467.409088 548.328613,471.241028 
	C548.334167,471.722412 548.532166,472.201569 548.705139,472.964752 
	C554.610474,472.964752 560.542664,473.193481 566.447388,472.889404 
	C570.847351,472.662872 572.325378,474.332123 572.313538,478.639160 
	C572.287231,488.194977 572.446045,488.200592 562.905640,488.222229 
	C559.906372,488.229034 556.884888,488.425201 553.912842,488.134064 
	C549.566040,487.708344 547.586975,489.298462 548.243286,494.214996 
z"/>
<path opacity="1.000000" stroke="none" 
	d="
M788.614380,490.001740 
	C788.615112,486.005951 788.610779,482.509796 788.618042,479.013611 
	C788.620117,478.015076 788.345764,476.875458 788.725647,476.040497 
	C791.688354,469.528717 797.478149,474.057068 801.841125,472.877075 
	C804.387756,472.188354 806.426575,473.290466 806.303528,476.543304 
	C806.216919,478.832275 806.286865,481.127197 806.286865,484.689209 
	C812.234009,478.908203 817.958679,474.975311 825.069702,473.234863 
	C837.632324,470.160095 838.193420,470.631042 838.453918,483.263336 
	C838.556091,488.220978 836.826904,489.375122 832.130676,489.332184 
	C815.856445,489.183350 807.320618,498.000671 807.304810,514.419800 
	C807.292480,527.239075 807.193481,540.060364 807.399719,552.876465 
	C807.465210,556.948730 806.175842,558.377625 802.010742,558.392944 
	C788.616943,558.442139 788.625488,558.586670 788.627258,545.441284 
	C788.629700,527.127991 788.618774,508.814667 788.614380,490.001740 
z"/>
<path opacity="1.000000" stroke="none" 
	d="
M233.523087,486.721436 
	C244.989914,457.924347 272.159912,441.352112 303.512939,443.742523 
	C330.455322,445.796600 355.927948,468.742188 361.977753,496.407166 
	C370.285156,534.396179 344.240997,571.639221 305.350586,577.383606 
	C267.447388,582.982239 231.739822,553.758362 229.556213,515.526855 
	C228.997513,505.744812 230.132568,496.303406 233.523087,486.721436 
M263.314362,556.344177 
	C270.289551,561.396545 277.942535,564.824890 286.474731,566.307922 
	C289.125366,566.768616 290.707031,566.430847 290.697723,563.311462 
	C290.672455,554.825806 290.683685,546.339600 290.750977,537.854248 
	C290.783203,533.791016 286.971039,534.278931 284.882385,532.743958 
	C283.051025,531.398010 281.558441,532.098694 280.109833,533.638855 
	C274.524780,539.576660 268.856445,545.435974 263.246033,551.350159 
	C261.954834,552.711304 260.580048,554.155212 263.314362,556.344177 
M343.398254,504.759766 
	C345.222565,504.740112 347.046906,504.721375 348.871216,504.700531 
	C350.996765,504.676208 351.970062,503.491608 351.636932,501.503235 
	C349.999542,491.729736 346.678223,482.732361 339.327179,475.016083 
	C331.964844,481.531647 325.155609,488.022919 319.355194,495.455475 
	C316.817505,498.707214 320.219391,504.581238 324.510590,504.682068 
	C330.479187,504.822327 336.452972,504.740692 343.398254,504.759766 
M309.352539,532.472107 
	C306.748840,534.067932 302.214081,533.324097 302.154144,538.019409 
	C302.046051,546.486938 302.105560,554.956848 302.128632,563.425659 
	C302.133667,565.281433 302.709778,566.880859 305.006927,566.466370 
	C314.925659,564.676514 324.005798,561.136108 331.715454,553.635742 
	C324.149414,546.525879 317.913483,538.725098 309.352539,532.472107 
M243.250839,504.718903 
	C250.385941,504.723328 257.521088,504.741455 264.656158,504.728455 
	C272.247925,504.714630 272.247894,504.701752 274.811829,496.853882 
	C267.201874,490.248352 261.066925,481.938660 252.850403,475.440063 
	C245.735718,483.136414 242.355270,491.969086 240.775940,501.648956 
	C240.529221,503.161163 240.723480,504.292755 243.250839,504.718903 
M290.658844,483.736481 
	C290.678497,475.589172 290.701691,467.441833 290.715302,459.294525 
	C290.718781,457.210388 290.671692,454.922974 287.716003,455.281372 
	C277.799225,456.483978 268.772766,459.663574 261.740967,467.134735 
	C262.175659,468.009094 262.300018,468.539856 262.626160,468.873291 
	C267.972992,474.341278 273.295105,479.834991 278.727234,485.217499 
	C283.309540,489.758026 285.885284,489.554565 290.658844,483.736481 
M345.312317,516.027832 
	C338.321960,515.983887 331.331604,515.905579 324.341278,515.910095 
	C320.691620,515.912476 316.711609,522.599121 319.124115,525.214600 
	C325.607178,532.243042 332.560425,538.837769 339.561340,545.839050 
	C346.356750,538.718018 349.205994,530.643738 351.252228,522.202881 
	C352.499969,517.055847 351.863495,516.362732 345.312317,516.027832 
M261.231415,537.707275 
	C264.550720,534.226868 267.747803,530.617798 271.230927,527.309937 
	C273.683167,524.981140 274.363586,522.955994 272.984406,519.536621 
	C271.540985,515.957947 269.090607,515.990417 266.241608,515.986084 
	C259.772400,515.976318 253.303192,515.960693 246.834045,515.974854 
	C240.178650,515.989502 239.953064,516.122131 241.399567,522.701843 
	C243.251694,531.126587 246.238586,539.049011 252.484116,545.355103 
	C256.104370,543.431396 258.186707,540.564392 261.231415,537.707275 
M293.296509,524.450989 
	C294.454987,524.532349 295.615692,524.707153 296.771576,524.679443 
	C302.859985,524.533508 307.553619,521.191345 309.717224,515.476074 
	C311.816803,509.930054 310.596283,504.955963 306.708405,500.702576 
	C302.956360,496.597717 296.342743,495.373993 291.043549,497.476715 
	C285.883331,499.524261 282.181366,504.767761 282.379791,510.322906 
	C282.623901,517.157043 285.959442,521.918396 293.296509,524.450989 
M301.977234,460.107697 
	C301.968842,467.105438 302.022522,474.104095 301.924042,481.100555 
	C301.879517,484.264221 302.856232,486.190369 306.063721,487.552429 
	C309.292511,488.923553 311.015198,487.714325 312.980835,485.643616 
	C315.847321,482.623840 318.917938,479.796204 321.751343,476.747101 
	C324.758118,473.511414 328.470795,470.861298 330.759857,466.518616 
	C322.340393,459.759888 313.021698,455.954315 302.710938,454.705505 
	C301.382477,456.274109 302.131775,457.828888 301.977234,460.107697 
z"/>
</svg>